<?xml version="1.0" ?><!DOCTYPE svg  PUBLIC '-//W3C//DTD SVG 1.1//EN'  'http://www.w3.org/Graphics/SVG/1.1/DTD/svg11.dtd'><svg enable-background="new 0 0 128 128" id="Слой_1" version="1.1" viewBox="0 0 128 128" height="128" width="128" xml:space="preserve" xmlns="http://www.w3.org/2000/svg" xmlns:xlink="http://www.w3.org/1999/xlink"><g><g><path d="    M64,19c-14.763,0-26.73,11.967-26.73,26.73c0,3.965,1.086,8.515,2.922,12.029l0.237,0.426l22.31,40.081    c0,0,0.359,0.931,1.261,0.931c0.858,0,1.261-0.931,1.261-0.931l22.434-40.306c1.983-3.746,3.035-8.265,3.035-12.23    C90.73,30.967,78.762,19,64,19z" fill="none" stroke="#323638" stroke-linecap="round" stroke-linejoin="round" stroke-miterlimit="10" stroke-width="2"/><ellipse cx="64" cy="45.755" fill="none" rx="20.694" ry="20.443" stroke="#323638" stroke-linecap="round" stroke-linejoin="round" stroke-miterlimit="10" stroke-width="2"/></g><g><path d="M89.551,98.901c0,4.394-10.303,9.099-25.641,9.099s-25.641-4.705-25.641-9.099    c0-3.406,5.871-6.629,14.556-8.164l-1.027-1.845c-9.535,1.803-15.529,5.587-15.529,10.009C36.27,105.125,48.411,110,63.91,110    s27.641-4.875,27.641-11.099c0-4.386-5.933-8.159-15.368-9.977l-1.026,1.843C83.745,92.314,89.551,95.527,89.551,98.901z" fill="#323638"/></g></g></svg>